<?xml version="1.0" standalone="no"?>
<!DOCTYPE svg PUBLIC "-//W3C//DTD SVG 20010904//EN"
 "http://www.w3.org/TR/2001/REC-SVG-20010904/DTD/svg10.dtd">
<svg version="1.0" xmlns="http://www.w3.org/2000/svg"
 width="500.000000pt" height="500.000000pt" viewBox="0 0 500.000000 500.000000"
 preserveAspectRatio="xMidYMid meet">
<metadata>
Created by potrace 1.11, written by Peter Selinger 2001-2013
</metadata>
<g transform="translate(0.000000,500.000000) scale(0.100000,-0.100000)"
fill="#000000" stroke="none">
<path d="M2347 4990 c-185 -29 -302 -77 -660 -268 -335 -179 -668 -352 -925
-481 -241 -122 -358 -198 -462 -300 -147 -146 -231 -304 -275 -516 -14 -69
-17 -195 -21 -935 l-5 -855 25 -99 c62 -241 209 -442 434 -595 31 -21 165 -96
297 -166 306 -163 645 -348 900 -490 333 -187 417 -224 595 -262 125 -26 355
-24 471 5 184 45 218 61 769 354 129 69 397 209 596 310 198 101 396 209 439
239 188 129 328 309 395 510 48 141 50 178 58 874 11 995 10 1030 -22 1149
-64 242 -210 443 -434 595 -31 21 -165 96 -297 166 -306 163 -645 348 -900
490 -331 186 -419 224 -590 260 -94 20 -306 28 -388 15z m270 -822 c24 -16 49
-44 62 -70 21 -44 21 -53 21 -651 0 -334 2 -607 4 -607 1 0 277 136 612 302
536 265 616 302 665 306 31 2 73 -1 92 -7 45 -15 103 -74 118 -119 18 -55 7
-144 -24 -191 -26 -39 -61 -58 -615 -334 l-587 -292 587 -292 c558 -278 589
-295 615 -335 25 -36 28 -51 28 -118 0 -68 -3 -82 -28 -117 -37 -53 -98 -83
-170 -83 -54 0 -86 14 -673 305 -339 168 -619 305 -620 305 -2 0 -4 -275 -4
-612 0 -603 0 -612 -21 -656 -13 -26 -38 -54 -62 -70 -35 -23 -51 -27 -117
-27 -66 0 -82 4 -117 27 -24 16 -49 44 -62 70 -21 44 -21 53 -21 656 0 337 -2
612 -4 612 -1 0 -281 -137 -620 -305 -589 -291 -619 -305 -673 -305 -74 0
-132 28 -169 82 -26 37 -29 50 -29 118 0 67 3 82 28 118 26 40 57 57 615 335
l587 292 -587 292 c-558 278 -589 295 -615 334 -22 34 -28 56 -31 113 -3 65
-1 75 27 118 l30 48 793 396 792 396 67 -4 c51 -3 76 -10 106 -30z"/>
<path d="M1883 3461 c-227 -113 -413 -208 -412 -211 1 -7 821 -412 825 -407 2
2 3 189 2 414 l-3 410 -412 -206z"/>
</g>
</svg>
