<?xml version="1.0" standalone="no"?>
<!DOCTYPE svg PUBLIC "-//W3C//DTD SVG 20010904//EN"
 "http://www.w3.org/TR/2001/REC-SVG-20010904/DTD/svg10.dtd">
<svg version="1.0" xmlns="http://www.w3.org/2000/svg"
 width="1500.000000pt" height="1500.000000pt" viewBox="0 0 1500.000000 1500.000000"
 preserveAspectRatio="xMidYMid meet">
<metadata>
Created by potrace 1.11, written by Peter Selinger 2001-2013
</metadata>
<g transform="translate(0.000000,1500.000000) scale(0.100000,-0.100000)"
fill="#000000" stroke="none">
<path d="M974 14831 c1 -56 7 -106 12 -111 12 -12 67 -13 514 -11 168 1 319
-1 335 -3 17 -2 71 -7 120 -11 50 -4 92 -9 95 -10 3 -2 41 -6 85 -10 44 -3
102 -11 130 -16 27 -6 60 -12 73 -15 208 -42 413 -110 595 -198 145 -70 239
-132 368 -243 133 -115 207 -195 278 -302 31 -47 58 -88 61 -91 3 -3 19 -27
34 -55 16 -27 34 -57 41 -65 20 -24 142 -317 175 -420 37 -114 86 -294 101
-370 5 -30 12 -64 15 -75 30 -141 52 -283 69 -445 3 -30 8 -71 10 -90 2 -19 7
-73 10 -120 4 -47 9 -98 11 -115 25 -210 25 -1345 0 -1482 -2 -10 -7 -56 -10
-103 -4 -47 -9 -94 -11 -105 -2 -11 -7 -51 -10 -88 -4 -37 -8 -76 -10 -85 -3
-18 -14 -86 -21 -137 -25 -171 -115 -456 -194 -620 -116 -237 -276 -447 -465
-610 -61 -53 -222 -164 -300 -207 -173 -95 -440 -196 -620 -233 -11 -3 -31 -7
-45 -10 -14 -3 -35 -7 -48 -10 -13 -2 -31 -6 -40 -9 -9 -3 -37 -8 -62 -11 -24
-4 -47 -8 -50 -10 -3 -2 -36 -6 -75 -10 -38 -3 -86 -8 -105 -10 -109 -10 -529
-35 -692 -40 -154 -5 -173 -14 -163 -78 2 -12 6 -50 9 -84 10 -102 17 -113 73
-114 277 -3 974 -19 1013 -23 19 -3 77 -7 127 -11 103 -7 118 -9 218 -30 39
-8 88 -17 110 -20 192 -28 559 -176 738 -297 208 -141 406 -339 569 -569 130
-182 304 -548 373 -785 62 -211 123 -463 144 -599 6 -38 13 -79 15 -90 7 -38
20 -140 31 -245 4 -36 8 -76 10 -90 2 -14 7 -59 10 -100 3 -41 8 -96 10 -122
3 -27 7 -69 10 -95 2 -27 7 -79 10 -118 3 -38 7 -95 10 -125 16 -185 25 -318
40 -590 5 -95 15 -264 20 -355 2 -33 6 -109 10 -170 3 -60 7 -144 10 -185 3
-41 7 -113 10 -160 16 -279 21 -354 30 -400 3 -14 7 -54 10 -90 21 -276 65
-567 114 -760 27 -106 92 -299 125 -374 8 -17 27 -60 42 -96 67 -154 193 -374
286 -497 117 -154 329 -356 513 -489 126 -91 318 -201 460 -264 173 -77 168
-75 235 -94 30 -8 108 -31 172 -49 82 -24 144 -35 205 -38 111 -5 1860 -5
1968 0 82 4 333 68 426 109 24 10 76 32 114 48 39 15 72 31 75 34 3 3 28 19
55 35 67 38 165 113 190 144 27 34 52 82 76 144 30 80 42 91 79 78 17 -6 68
-39 113 -74 91 -70 241 -177 250 -177 3 0 26 -13 49 -29 59 -40 365 -190 418
-206 3 -1 50 -15 105 -32 55 -17 136 -42 180 -54 l80 -22 1030 -3 c971 -2
1109 1 1195 25 202 57 291 90 445 168 223 112 380 231 630 477 154 152 174
178 154 203 -19 24 -105 103 -132 122 -45 32 -45 31 -239 -154 -222 -213 -350
-316 -468 -375 -161 -80 -312 -110 -535 -105 -142 3 -195 11 -320 47 -180 52
-290 153 -393 362 -42 84 -114 285 -126 351 -3 17 -12 62 -21 100 -8 39 -17
79 -19 90 -20 107 -36 199 -41 240 -3 28 -7 61 -10 75 -2 14 -7 48 -10 75 -5
49 -13 110 -20 170 -4 30 -7 62 -25 240 -12 117 -15 151 -36 410 -2 33 -7 86
-9 118 -3 31 -7 84 -10 117 -3 33 -7 87 -10 120 -9 106 -14 173 -20 235 -5 62
-10 142 -20 308 -4 53 -8 105 -9 115 -7 32 -22 221 -41 487 -2 39 -7 102 -10
140 -4 39 -8 90 -10 115 -3 46 -12 133 -20 205 -3 22 -7 63 -10 90 -3 28 -8
66 -10 85 -2 19 -9 80 -15 135 -6 55 -13 114 -16 130 -3 17 -7 39 -9 50 -4 30
-34 196 -40 225 -3 14 -12 57 -20 95 -8 39 -17 81 -20 95 -2 13 -14 54 -24 90
-11 36 -29 99 -41 140 -50 178 -180 486 -276 652 -201 349 -439 613 -766 851
-64 46 -130 91 -147 98 -17 8 -31 17 -31 21 0 5 -4 8 -10 8 -5 0 -33 15 -62
33 -85 52 -111 66 -148 83 -19 9 -53 24 -75 34 -22 10 -80 37 -130 60 -233
109 -691 253 -1035 325 -8 2 -51 10 -95 19 -44 9 -102 23 -130 31 -43 12 -98
24 -235 49 -14 3 -68 14 -120 26 -52 11 -104 22 -115 25 -46 9 -132 26 -159
31 -16 3 -32 7 -36 9 -4 2 -25 7 -46 9 -22 3 -69 12 -104 20 -36 8 -81 17
-100 20 -19 3 -46 8 -60 11 -14 2 -38 7 -55 11 -52 10 -95 25 -95 34 0 14 59
23 240 35 140 10 245 20 300 30 14 3 45 7 70 10 25 3 56 7 70 10 14 2 41 6 60
9 35 5 131 19 140 21 3 1 30 5 60 9 30 5 64 10 75 12 821 152 1235 277 1716
519 259 131 513 325 726 557 56 60 233 303 258 353 11 22 23 42 26 45 7 5 95
187 131 270 58 132 145 407 164 515 3 17 9 46 14 65 5 19 11 46 14 60 2 14 7
36 10 50 13 56 22 117 41 275 9 72 18 141 20 155 7 45 29 259 40 390 5 62 11
132 20 230 3 25 7 74 10 110 3 36 7 83 10 105 2 22 7 72 10 110 3 39 8 90 10
115 3 25 7 71 10 102 3 32 7 82 10 110 2 29 7 85 11 123 3 39 7 86 9 105 2 19
6 67 10 105 3 39 8 86 11 105 2 19 6 62 9 95 3 33 8 76 10 95 12 96 15 119 20
168 12 124 17 162 30 252 8 53 21 128 30 168 8 39 17 86 20 104 11 61 53 223
86 323 92 289 208 432 417 514 93 37 298 66 449 64 143 -2 360 -43 453 -86 64
-30 184 -100 188 -109 2 -4 8 -8 13 -8 11 0 104 -70 317 -237 78 -62 150 -117
160 -122 13 -7 33 3 89 47 39 32 78 68 85 80 11 22 9 27 -33 65 -74 69 -127
114 -192 164 -34 27 -71 56 -82 66 -51 46 -251 172 -361 226 -141 72 -270 120
-449 169 l-130 35 -1055 1 c-580 1 -1089 -2 -1130 -6 -119 -11 -389 -79 -480
-120 -25 -12 -74 -32 -110 -45 -351 -130 -763 -431 -980 -716 -39 -51 -75 -98
-82 -106 -39 -46 -208 -362 -208 -389 0 -4 -7 -20 -15 -35 -17 -33 -77 -216
-99 -302 -19 -75 -63 -348 -71 -435 -3 -36 -8 -90 -12 -120 -3 -30 -7 -66 -8
-80 -4 -31 -13 -135 -20 -212 -3 -32 -7 -84 -10 -115 -3 -32 -7 -89 -10 -128
-2 -38 -7 -104 -10 -145 -2 -41 -7 -104 -10 -140 -2 -36 -7 -103 -10 -150 -9
-142 -20 -292 -30 -410 -7 -76 -11 -137 -20 -240 -3 -41 -7 -91 -10 -110 -2
-19 -7 -64 -10 -100 -3 -36 -7 -76 -10 -90 -2 -14 -7 -59 -10 -100 -4 -41 -8
-77 -10 -80 -1 -3 -6 -34 -10 -70 -45 -434 -194 -904 -391 -1235 -59 -100
-108 -175 -131 -200 -10 -11 -42 -49 -72 -85 -107 -127 -286 -279 -491 -417
-74 -50 -318 -159 -430 -192 -58 -17 -118 -35 -135 -40 -53 -16 -147 -34 -280
-55 -16 -3 -55 -8 -85 -11 -30 -3 -62 -8 -70 -10 -18 -5 -255 -14 -525 -20
-110 -2 -328 -7 -485 -11 -157 -3 -312 -7 -345 -9 -33 -1 -72 -3 -87 -4 -17
-1 -32 -9 -39 -22 -14 -28 -23 -160 -11 -177 7 -11 143 -14 718 -17 390 -2
732 -6 759 -10 43 -4 105 -14 260 -41 141 -24 342 -85 487 -146 99 -42 283
-141 337 -181 259 -191 491 -445 631 -689 64 -111 187 -366 214 -443 15 -44
39 -111 52 -150 14 -38 34 -104 46 -145 43 -159 78 -295 83 -327 2 -18 9 -52
14 -75 9 -39 32 -185 46 -283 3 -22 7 -51 10 -65 2 -14 7 -50 10 -80 3 -30 7
-66 9 -80 3 -14 7 -61 11 -105 4 -44 9 -87 10 -96 2 -9 6 -63 10 -120 3 -57 7
-117 10 -134 2 -16 6 -75 10 -130 3 -55 8 -125 10 -155 2 -30 7 -98 10 -150 3
-52 8 -115 10 -140 2 -25 6 -90 10 -145 3 -55 8 -127 10 -160 2 -33 7 -109 10
-170 3 -60 7 -130 10 -155 2 -25 7 -106 10 -180 4 -74 8 -151 10 -170 2 -19 6
-84 10 -145 3 -60 8 -126 10 -145 2 -19 6 -75 10 -125 3 -49 8 -103 10 -120 3
-16 7 -61 10 -100 3 -38 8 -83 10 -100 2 -16 9 -73 15 -125 57 -478 208 -903
453 -1270 70 -106 118 -173 126 -180 10 -8 107 -124 115 -137 8 -14 -39 -62
-144 -148 -136 -111 -256 -168 -440 -207 -103 -21 -300 -31 -372 -18 -24 5
-63 11 -88 15 -257 37 -428 165 -536 401 -59 129 -129 360 -149 489 -3 17 -7
41 -10 55 -13 60 -34 184 -41 237 -3 32 -8 60 -9 63 -2 3 -6 34 -9 70 -4 36
-9 76 -11 90 -7 39 -14 99 -20 165 -3 33 -7 71 -9 85 -2 14 -7 61 -11 105 -4
44 -8 94 -10 110 -2 17 -7 68 -10 115 -3 47 -8 110 -11 140 -10 134 -14 180
-20 265 -3 50 -7 106 -9 125 -2 19 -7 82 -10 140 -4 58 -9 113 -11 123 -1 9
-6 54 -9 100 -3 45 -8 102 -10 127 -2 25 -7 79 -10 120 -3 41 -7 101 -10 132
-3 32 -7 86 -10 120 -3 35 -7 86 -10 113 -7 80 -20 250 -30 395 -6 91 -9 126
-24 265 -6 50 -13 116 -16 148 -4 32 -8 67 -10 79 -3 11 -7 46 -11 77 -3 31
-17 119 -31 196 -13 77 -26 154 -29 170 -30 170 -123 500 -190 666 -19 48 -34
89 -34 92 0 13 -106 226 -152 305 -28 48 -59 102 -70 121 -62 110 -284 378
-414 501 -62 59 -211 182 -299 248 -56 41 -135 92 -144 92 -6 0 -11 5 -11 10
0 6 -4 10 -10 10 -5 0 -38 17 -73 39 -121 74 -487 241 -617 281 -14 5 -56 20
-95 34 -155 58 -507 149 -955 246 -157 34 -292 64 -300 65 -34 8 -327 67 -350
71 -14 3 -68 13 -120 24 -52 11 -108 22 -125 25 -16 2 -41 7 -55 10 -14 3 -52
10 -85 16 -33 5 -69 12 -80 14 -11 2 -54 10 -95 19 -41 9 -78 16 -81 16 -15 0
-49 44 -49 64 0 38 29 53 110 60 41 4 88 9 105 11 16 2 53 7 80 10 79 10 112
15 240 36 66 11 147 25 180 30 94 15 300 58 410 86 55 13 111 27 125 29 109
21 618 183 735 234 44 19 77 32 85 35 3 1 34 15 70 32 36 16 103 47 150 69 47
21 132 65 190 97 58 33 134 75 170 95 36 19 97 58 135 86 141 101 220 161 235
176 8 9 35 31 60 50 41 32 98 83 191 170 57 54 228 259 305 365 105 146 138
199 205 335 121 248 190 450 223 660 3 19 8 46 11 60 3 14 8 45 11 70 2 25 7
56 9 70 24 128 23 606 -1 820 -23 209 -96 510 -175 725 -182 490 -609 1015
-1134 1392 -221 159 -621 371 -910 483 -88 34 -180 70 -205 81 -37 16 -313
101 -369 114 -9 3 -43 12 -76 21 -33 9 -68 18 -78 20 -10 2 -26 5 -35 8 -9 3
-28 7 -42 10 -14 2 -45 9 -70 16 -25 7 -56 14 -70 16 -14 3 -68 13 -120 24
-52 10 -122 24 -155 29 -33 6 -73 13 -90 16 -78 14 -156 24 -220 30 -38 4 -83
10 -100 13 -16 3 -577 7 -1246 9 l-1216 4 1 -100z"/>
</g>
</svg>
