<?xml version="1.0" standalone="no"?>
<!DOCTYPE svg PUBLIC "-//W3C//DTD SVG 20010904//EN"
 "http://www.w3.org/TR/2001/REC-SVG-20010904/DTD/svg10.dtd">
<svg version="1.0" xmlns="http://www.w3.org/2000/svg"
 width="1125.000000pt" height="1115.000000pt" viewBox="0 0 1125.000000 1115.000000"
 preserveAspectRatio="xMidYMid meet">
<metadata>
Created by potrace 1.16, written by Peter Selinger 2001-2019
</metadata>
<style>
    @media (prefers-color-scheme: dark) {
      g {
        fill: #ffffff;
      }
    }
</style>
<g transform="translate(0.000000,1115.000000) scale(0.100000,-0.100000)"
fill="#2d2d2d" stroke="none">
<path d="M730 11071 c0 -66 3 -80 18 -86 9 -3 134 -3 277 0 162 4 302 2 370
-4 259 -26 292 -30 340 -41 28 -7 79 -19 115 -27 177 -41 372 -123 503 -211
88 -59 223 -181 283 -255 41 -52 174 -259 174 -272 0 -3 13 -33 28 -67 44 -97
52 -116 86 -223 54 -165 106 -407 126 -590 44 -405 53 -593 47 -960 -6 -322
-11 -415 -37 -650 -15 -134 -44 -303 -58 -345 -5 -14 -17 -52 -27 -85 -88
-299 -268 -563 -501 -734 -104 -76 -108 -78 -229 -140 -165 -83 -375 -145
-615 -181 -78 -12 -516 -39 -632 -40 -37 0 -77 -4 -90 -9 -24 -9 -24 -10 -14
-100 8 -81 11 -92 30 -96 12 -2 197 -6 411 -9 377 -5 562 -18 655 -46 19 -5
49 -10 65 -10 38 0 320 -92 372 -121 21 -12 67 -37 103 -56 57 -31 106 -65
210 -148 86 -67 232 -234 317 -360 86 -128 213 -404 254 -550 4 -16 17 -61 28
-100 70 -239 113 -506 141 -870 5 -71 15 -179 20 -240 6 -60 15 -189 21 -285
5 -96 16 -287 24 -425 8 -137 19 -333 25 -435 6 -102 12 -191 15 -198 2 -7 9
-72 15 -145 10 -131 18 -191 46 -362 24 -140 62 -274 121 -421 84 -213 205
-420 317 -542 29 -31 66 -72 82 -91 16 -18 58 -56 94 -85 35 -28 75 -61 89
-74 13 -12 41 -32 60 -44 20 -12 38 -25 41 -28 6 -8 208 -130 215 -130 5 0
121 -52 165 -74 24 -12 62 -24 195 -62 33 -9 80 -23 104 -30 67 -21 1567 -20
1637 0 27 8 76 21 109 31 54 14 104 32 160 56 11 5 34 13 50 19 56 21 190 105
230 145 27 26 49 62 64 105 33 91 43 99 84 75 17 -10 55 -37 82 -60 48 -40
171 -125 181 -125 3 0 20 -11 37 -24 18 -14 68 -41 112 -61 44 -20 103 -48
130 -61 57 -27 98 -41 240 -81 l100 -28 790 -3 c776 -2 791 -2 875 19 263 66
505 196 695 374 192 181 245 237 236 253 -12 23 -91 96 -119 111 -21 11 -29 6
-109 -71 -48 -46 -94 -90 -103 -98 -9 -8 -41 -38 -71 -66 -155 -146 -276 -211
-444 -240 -187 -32 -399 -6 -532 64 -114 60 -214 224 -276 452 -65 239 -106
551 -152 1135 -9 110 -22 270 -30 355 -8 85 -15 180 -15 210 0 31 -4 91 -10
135 -5 44 -14 145 -20 225 -14 219 -29 395 -40 490 -6 47 -15 130 -20 185 -9
99 -27 216 -54 350 -32 159 -36 181 -45 205 -5 14 -19 61 -31 105 -29 107 -33
117 -103 285 -140 333 -353 611 -629 821 -64 49 -134 98 -155 109 -21 12 -45
25 -53 30 -75 46 -152 90 -157 90 -3 0 -34 13 -67 29 -116 55 -197 91 -208 91
-5 0 -24 6 -41 14 -41 18 -183 67 -222 76 -16 4 -66 18 -110 30 -148 41 -190
51 -235 60 -106 21 -192 40 -199 44 -4 3 -34 10 -67 16 -32 5 -88 16 -124 24
-130 28 -217 47 -295 62 -44 9 -114 22 -155 31 -41 8 -97 18 -123 23 -64 12
-87 20 -87 30 0 9 56 17 190 25 52 3 124 10 160 15 36 5 101 14 145 20 159 22
221 32 290 45 39 7 99 18 135 25 175 31 433 92 580 137 198 60 490 182 625
261 235 138 432 311 567 501 26 36 51 71 55 76 51 66 157 280 198 401 20 58
40 116 44 127 5 12 16 56 26 97 9 41 23 102 30 135 23 100 34 167 40 235 3 36
10 92 16 125 5 33 14 112 20 175 11 130 30 344 54 595 9 94 20 220 25 280 10
118 24 261 41 415 6 52 15 131 19 175 16 161 65 406 111 550 77 247 167 354
349 415 51 17 215 39 290 40 89 0 240 -25 319 -52 92 -31 214 -109 369 -235
73 -59 146 -116 162 -126 l28 -18 63 48 c35 27 64 56 64 65 0 21 -224 207
-345 287 -172 113 -379 198 -588 240 -36 7 -318 11 -845 11 -843 0 -810 2
-1012 -50 -44 -11 -89 -24 -100 -29 -11 -5 -40 -16 -65 -26 -25 -9 -53 -21
-62 -26 -10 -5 -23 -9 -29 -9 -12 0 -116 -51 -207 -102 -106 -58 -274 -181
-357 -260 -225 -214 -380 -489 -459 -818 -14 -58 -46 -254 -46 -283 0 -18 -7
-86 -15 -152 -8 -66 -21 -217 -30 -335 -8 -118 -22 -316 -30 -440 -35 -503
-83 -937 -119 -1075 -8 -27 -19 -75 -26 -105 -36 -158 -144 -427 -220 -545
-11 -16 -24 -39 -30 -50 -24 -45 -37 -64 -80 -116 -25 -30 -50 -60 -57 -66 -6
-7 -20 -23 -30 -36 -37 -45 -192 -175 -281 -235 -50 -34 -94 -62 -97 -62 -3 0
-42 -18 -86 -40 -84 -41 -137 -61 -226 -86 -136 -37 -164 -43 -243 -54 -47 -6
-112 -16 -145 -21 -33 -5 -289 -13 -570 -18 -280 -4 -517 -11 -526 -15 -19 -8
-29 -48 -29 -112 0 -35 4 -44 18 -46 9 -1 256 -2 547 -2 462 -1 543 -4 630
-19 55 -10 126 -23 158 -28 93 -14 323 -95 416 -146 48 -26 97 -52 111 -59 46
-24 214 -165 283 -237 137 -145 219 -264 306 -442 35 -71 67 -138 72 -147 5
-10 9 -23 9 -29 0 -6 6 -25 14 -42 24 -56 43 -111 60 -172 9 -33 23 -80 30
-105 58 -194 113 -561 136 -905 5 -71 13 -191 19 -265 16 -214 31 -440 42
-645 28 -548 64 -942 104 -1142 22 -105 69 -279 85 -313 20 -40 40 -92 40
-101 0 -6 28 -68 63 -138 70 -139 174 -296 255 -386 28 -32 52 -62 52 -65 0
-11 -101 -100 -167 -146 -89 -64 -180 -98 -313 -120 -107 -18 -182 -17 -292 1
-149 24 -231 61 -303 135 -39 40 -95 114 -95 125 0 3 -11 28 -25 57 -110 234
-179 676 -235 1488 -5 74 -13 187 -19 250 -6 63 -18 205 -26 315 -9 110 -21
254 -27 320 -5 66 -14 174 -18 240 -12 181 -48 477 -76 615 -8 41 -22 111 -30
155 -9 44 -22 98 -29 120 -7 22 -21 67 -30 100 -54 188 -135 381 -215 510 -10
17 -28 47 -39 68 -43 78 -202 275 -298 368 -100 98 -271 229 -378 290 -33 18
-78 44 -100 57 -22 12 -55 29 -73 38 -19 8 -70 32 -115 53 -45 21 -122 53
-172 71 -49 17 -99 36 -110 40 -34 14 -88 31 -140 45 -27 7 -77 21 -110 30
-119 33 -328 82 -560 130 -44 9 -98 21 -119 27 -21 5 -60 13 -85 18 -25 5 -81
16 -124 24 -220 45 -318 63 -447 86 -110 19 -138 30 -143 57 -4 22 14 53 31
53 36 2 220 22 267 29 349 57 429 73 715 146 98 25 252 73 375 118 134 48 144
53 380 163 32 15 104 54 158 86 54 32 101 58 104 58 3 0 22 13 42 28 20 16 68
50 106 77 71 49 274 224 309 267 11 13 47 55 81 93 34 39 83 102 110 140 26
39 58 84 71 100 59 80 176 334 203 441 5 18 12 38 17 45 4 8 11 34 15 59 4 25
14 81 23 125 51 253 45 703 -13 945 -6 25 -20 83 -30 130 -11 47 -29 110 -41
140 -36 93 -51 134 -60 162 -21 67 -178 322 -266 433 -109 136 -268 302 -364
378 -36 28 -67 54 -70 57 -7 9 -162 123 -185 137 -11 6 -58 35 -104 64 -77 48
-410 219 -426 219 -4 0 -21 6 -38 14 -32 13 -77 31 -159 62 -24 9 -51 20 -60
25 -10 5 -34 13 -55 18 -35 9 -61 17 -198 58 -115 35 -377 92 -540 119 -275
44 -261 44 -1202 44 l-903 0 0 -79z"/>
</g>
</svg>
